<svg width="64" height="64" viewBox="0 0 64 64" fill="none" xmlns="http://www.w3.org/2000/svg">
  <defs>
    <linearGradient id="grad1" x1="0%" y1="0%" x2="100%" y2="100%">
      <stop offset="0%" style="stop-color:#7c3aed;stop-opacity:1" />
      <stop offset="100%" style="stop-color:#9333ea;stop-opacity:1" />
    </linearGradient>
  </defs>

  <!-- Background circle -->
  <circle cx="32" cy="32" r="32" fill="url(#grad1)"/>

  <!-- Admin icon: Gear/Settings -->
  <g transform="translate(32, 32)">
    <path d="M 0,-12 L 2,-10 L 4,-12 L 6,-10 L 8,-8 L 10,-6 L 12,-4 L 10,-2 L 12,0 L 10,2 L 12,4 L 10,6 L 8,8 L 6,10 L 4,12 L 2,10 L 0,12 L -2,10 L -4,12 L -6,10 L -8,8 L -10,6 L -12,4 L -10,2 L -12,0 L -10,-2 L -12,-4 L -10,-6 L -8,-8 L -6,-10 L -4,-12 L -2,-10 Z"
          fill="white" opacity="0.9"/>
    <circle cx="0" cy="0" r="5" fill="url(#grad1)"/>
  </g>
</svg>
